<?xml version="1.0" encoding="UTF-8"?>
<svg xmlns="http://www.w3.org/2000/svg" xmlns:xlink="http://www.w3.org/1999/xlink" width="375pt" height="374.999991pt" viewBox="0 0 375 374.999991" version="1.2">
<defs>
<clipPath id="clip1">
  <path d="M 63.425781 47.996094 L 310.925781 47.996094 L 310.925781 295.496094 L 63.425781 295.496094 Z M 63.425781 47.996094 "/>
</clipPath>
</defs>
<g id="surface1">
<g clip-path="url(#clip1)" clip-rule="nonzero">
<path style=" stroke:none;fill-rule:nonzero;fill:rgb(100%,85.879517%,34.509277%);fill-opacity:1;" d="M 187.175781 47.996094 C 255.53125 47.996094 310.925781 103.390625 310.925781 171.746094 C 310.925781 240.082031 255.53125 295.496094 187.175781 295.496094 C 118.839844 295.496094 63.425781 240.082031 63.425781 171.746094 C 63.425781 103.390625 118.839844 47.996094 187.175781 47.996094 "/>
</g>
<path style=" stroke:none;fill-rule:nonzero;fill:rgb(26.669312%,29.40979%,36.079407%);fill-opacity:1;" d="M 151.292969 103.414062 L 151.292969 127.273438 L 161.644531 127.273438 L 161.644531 108.753906 C 161.644531 107.5 162.675781 106.46875 163.929688 106.46875 L 210.421875 106.46875 C 211.675781 106.46875 212.707031 107.5 212.707031 108.753906 L 212.707031 127.273438 L 222.132812 127.273438 L 222.132812 103.414062 C 222.132812 99.523438 218.96875 96.359375 215.082031 96.359375 L 158.347656 96.359375 C 154.457031 96.359375 151.292969 99.523438 151.292969 103.414062 "/>
<path style=" stroke:none;fill-rule:nonzero;fill:rgb(34.509277%,48.629761%,100%);fill-opacity:1;" d="M 114.90625 121.101562 L 259.445312 121.101562 C 263.949219 121.101562 267.59375 124.75 267.59375 129.253906 L 267.59375 238.960938 C 267.59375 243.464844 263.949219 247.113281 259.445312 247.113281 L 114.90625 247.113281 C 110.402344 247.113281 106.753906 243.464844 106.753906 238.960938 L 106.753906 129.253906 C 106.753906 124.75 110.402344 121.101562 114.90625 121.101562 "/>
<path style=" stroke:none;fill-rule:nonzero;fill:rgb(58.428955%,76.078796%,83.918762%);fill-opacity:1;" d="M 167.707031 168.847656 C 179.132812 177.8125 195.21875 177.8125 206.644531 168.847656 L 264.914062 122.925781 C 263.441406 121.605469 261.554688 120.507812 259.445312 120.507812 L 114.90625 120.507812 C 112.796875 120.507812 110.886719 121.605469 109.4375 122.925781 L 167.707031 168.847656 "/>
<path style=" stroke:none;fill-rule:nonzero;fill:rgb(92.158508%,28.62854%,23.139954%);fill-opacity:1;" d="M 191.4375 158.386719 L 193.21875 160.167969 C 195.238281 162.167969 195.238281 165.464844 193.21875 167.464844 L 191.4375 169.242188 C 189.417969 171.265625 186.144531 171.265625 184.121094 169.242188 L 182.363281 167.464844 C 180.34375 165.464844 180.34375 162.167969 182.363281 160.167969 L 184.121094 158.386719 C 186.144531 156.367188 189.417969 156.367188 191.4375 158.386719 "/>
</g>
</svg>
